<svg width="21" height="11" viewBox="0 0 21 11" fill="none" xmlns="http://www.w3.org/2000/svg">
<path d="M0.169434 1.18945C0.169434 0.924237 0.27479 0.669883 0.462327 0.482347C0.649863 0.29481 0.904217 0.189453 1.16943 0.189453H19.1694C19.4347 0.189453 19.689 0.29481 19.8765 0.482347C20.0641 0.669883 20.1694 0.924237 20.1694 1.18945C20.1694 1.45467 20.0641 1.70902 19.8765 1.89656C19.689 2.0841 19.4347 2.18945 19.1694 2.18945H1.16943C0.904217 2.18945 0.649863 2.0841 0.462327 1.89656C0.27479 1.70902 0.169434 1.45467 0.169434 1.18945ZM0.169434 5.18945C0.169434 4.92424 0.27479 4.66988 0.462327 4.48235C0.649863 4.29481 0.904217 4.18945 1.16943 4.18945H19.1694C19.4347 4.18945 19.689 4.29481 19.8765 4.48235C20.0641 4.66988 20.1694 4.92424 20.1694 5.18945C20.1694 5.45467 20.0641 5.70902 19.8765 5.89656C19.689 6.0841 19.4347 6.18945 19.1694 6.18945H1.16943C0.904217 6.18945 0.649863 6.0841 0.462327 5.89656C0.27479 5.70902 0.169434 5.45467 0.169434 5.18945ZM1.16943 8.18945C0.904217 8.18945 0.649863 8.29481 0.462327 8.48235C0.27479 8.66988 0.169434 8.92424 0.169434 9.18945C0.169434 9.45467 0.27479 9.70902 0.462327 9.89656C0.649863 10.0841 0.904217 10.1895 1.16943 10.1895H13.1694C13.4347 10.1895 13.689 10.0841 13.8765 9.89656C14.0641 9.70902 14.1694 9.45467 14.1694 9.18945C14.1694 8.92424 14.0641 8.66988 13.8765 8.48235C13.689 8.29481 13.4347 8.18945 13.1694 8.18945H1.16943Z" fill="black"/>
</svg>
