<svg width="12" height="13" viewBox="0 0 12 13" fill="none" xmlns="http://www.w3.org/2000/svg">
<g clip-path="url(#clip0_16_202)">
<path d="M6.57911 1.13672C6.62777 1.13662 6.67597 1.14708 6.72096 1.16749C6.76594 1.1879 6.80683 1.21786 6.84129 1.25566L10.5073 5.28833C10.5768 5.36472 10.6158 5.46831 10.6158 5.57632C10.6158 5.68433 10.5768 5.78792 10.5073 5.86431C10.1518 6.25535 9.7134 6.34334 9.3942 6.34334C9.26311 6.34334 9.14609 6.32867 9.05351 6.31157L6.73242 8.86477C6.79352 9.13558 6.83317 9.4117 6.85091 9.69004C6.88498 10.2619 6.82721 11.0644 6.31767 11.6249C6.24823 11.7013 6.15405 11.7442 6.05586 11.7442C5.95767 11.7442 5.86349 11.7013 5.79405 11.6249L3.69884 9.32099L1.3422 11.9133C1.19778 12.0722 0.439383 12.6481 0.294962 12.4893C0.150542 12.3304 0.674159 11.4954 0.818579 11.3373L3.17523 8.74501L1.08076 6.44028C1.01134 6.3639 0.972337 6.26031 0.972337 6.1523C0.972337 6.04428 1.01134 5.94069 1.08076 5.86431C1.5903 5.30381 2.31981 5.23945 2.83973 5.27774C3.09276 5.29724 3.34379 5.34085 3.58997 5.40809L5.91107 2.85569C5.8917 2.73163 5.88179 2.606 5.88144 2.48013C5.88144 2.12981 5.96143 1.64752 6.31767 1.25566C6.38707 1.17952 6.48108 1.13674 6.57911 1.13672Z" fill="black"/>
</g>
<defs>
<clipPath id="clip0_16_202">
<rect width="10.9091" height="12" fill="white" transform="translate(0.27002 0.826721)"/>
</clipPath>
</defs>
</svg>
