<svg width="15" height="9" viewBox="0 0 15 9" fill="none" xmlns="http://www.w3.org/2000/svg">
<g clip-path="url(#clip0_16_231)">
<path d="M14.5818 0.81308C14.5049 0.707315 14.398 0.674371 14.2682 0.674371C13.9517 0.677839 13.6348 0.674372 13.318 0.676799C13.2296 0.676799 13.1839 0.649751 13.1477 0.568954C12.9861 0.206232 12.6929 0.0168946 12.2895 0.0193219C11.8861 0.0217493 11.5993 0.222183 11.4401 0.583864C11.4115 0.648364 11.3757 0.676799 11.301 0.676453C10.4444 0.674372 9.58789 0.674372 8.73152 0.676452C8.65141 0.676452 8.61601 0.644202 8.58454 0.575195C8.42146 0.215594 8.13179 0.0175877 7.72625 0.0182812C7.32072 0.0189748 7.03355 0.217674 6.87155 0.577969C6.83972 0.647323 6.80002 0.676452 6.72242 0.676452C5.87058 0.674834 5.01861 0.674834 4.16653 0.676452C4.13441 0.680164 4.10196 0.672965 4.07471 0.656083C4.04745 0.639201 4.02707 0.613679 4.01704 0.583864C3.85755 0.221835 3.57038 0.0234827 3.16556 0.0217488C2.76073 0.0200149 2.46856 0.211432 2.30727 0.574501C2.27151 0.657726 2.22109 0.678532 2.1349 0.678532C1.8047 0.675065 1.47462 0.675065 1.14466 0.678532C0.975861 0.680266 0.875014 0.764531 0.866789 0.899425C0.857133 1.05617 0.960483 1.15534 1.14645 1.15708C1.47188 1.1602 1.79767 1.16124 2.12346 1.15708C2.22144 1.15708 2.2758 1.18239 2.31407 1.27567C2.35732 1.38048 2.4221 1.47566 2.50448 1.55543C2.58687 1.63519 2.68512 1.69787 2.79328 1.73965C2.8741 1.77433 2.91022 1.81525 2.90986 1.90298C2.90723 2.74656 2.90723 3.59036 2.90986 4.4344C2.91054 4.47091 2.90303 4.50713 2.88784 4.54055C2.87265 4.57396 2.85014 4.60377 2.82188 4.6279C2.56631 4.86926 2.31228 5.112 2.0598 5.35612C1.60348 5.79479 1.42717 6.31668 1.61671 6.91902C1.80875 7.52968 2.25649 7.89379 2.89985 7.99401C3.97627 8.16254 4.77197 7.34138 4.77019 6.5126C4.77368 6.30033 4.73204 6.08963 4.64787 5.89365C4.5637 5.69766 4.43881 5.52059 4.28097 5.37346C4.02205 5.12309 3.7598 4.87527 3.49421 4.62998C3.46277 4.60333 3.43781 4.57027 3.42112 4.53315C3.40442 4.49604 3.39641 4.4558 3.39765 4.41533C3.40099 3.5847 3.40099 2.75419 3.39765 1.92379C3.39765 1.82738 3.42733 1.77745 3.52103 1.74C3.63325 1.69634 3.73498 1.63068 3.81984 1.54715C3.9047 1.46361 3.97086 1.36399 4.01418 1.25452C4.0227 1.22362 4.04235 1.19669 4.06958 1.17863C4.0968 1.16056 4.1298 1.15255 4.16259 1.15604C5.01444 1.15812 5.8664 1.15812 6.71849 1.15604C6.79502 1.15604 6.83972 1.17754 6.87012 1.25105C6.91531 1.36453 6.98456 1.46754 7.07339 1.55344C7.16222 1.63934 7.26865 1.7062 7.3858 1.74971C7.41553 1.75795 7.4413 1.77611 7.45858 1.80098C7.47585 1.82585 7.48351 1.85583 7.48021 1.88564C7.47878 2.74217 7.47878 3.59869 7.48021 4.45521C7.48021 4.52838 7.44445 4.5752 7.39474 4.62201C7.13392 4.87099 6.87393 5.12055 6.61478 5.37069C6.15703 5.81178 5.99467 6.33818 6.18957 6.9367C6.38447 7.53523 6.83722 7.89587 7.47378 7.99609C8.18901 8.10879 8.82772 7.77727 9.14564 7.21273C9.30998 6.92936 9.37445 6.60173 9.32927 6.2796C9.28409 5.95746 9.13172 5.65842 8.89531 5.4279C8.62423 5.15846 8.34672 4.89561 8.06849 4.63311C8.03714 4.60624 8.01224 4.57304 7.99556 4.53583C7.97888 4.49862 7.97081 4.45832 7.97194 4.41776C7.9748 3.58297 7.9748 2.74818 7.97194 1.91338C7.97194 1.82253 7.99983 1.77467 8.08959 1.74C8.19997 1.69742 8.30016 1.63331 8.38394 1.55165C8.46773 1.46999 8.53333 1.37252 8.57667 1.26527C8.61243 1.18343 8.65713 1.15604 8.74582 1.15604C9.58885 1.15881 10.432 1.15881 11.2753 1.15604C11.355 1.15604 11.4058 1.17199 11.4383 1.25279C11.4827 1.36452 11.5507 1.46602 11.6379 1.55081C11.7251 1.63561 11.8296 1.70181 11.9447 1.7452C12.0284 1.77988 12.0577 1.82184 12.0577 1.90888C12.0544 2.74806 12.0544 3.58725 12.0577 4.42643C12.0588 4.46274 12.0517 4.49885 12.0368 4.53221C12.022 4.56558 11.9998 4.59539 11.9719 4.61958C11.6754 4.90081 11.3639 5.17025 11.0907 5.4709C10.275 6.36627 10.7531 7.73566 11.9579 7.9836C12.1874 8.0333 12.4253 8.03353 12.6548 7.98428C12.8843 7.93503 13.0999 7.83749 13.2863 7.69857C13.4727 7.55965 13.6253 7.38273 13.7334 7.18032C13.8415 6.9779 13.9025 6.75494 13.912 6.52717C13.9302 6.10792 13.7768 5.73584 13.4732 5.43276C13.2028 5.16297 12.9242 4.90047 12.646 4.63831C12.6133 4.60955 12.5875 4.57417 12.5704 4.53469C12.5534 4.4952 12.5455 4.45256 12.5473 4.40979C12.5499 3.58378 12.5499 2.75765 12.5473 1.93142C12.5473 1.83224 12.5745 1.77606 12.675 1.7348C12.7828 1.69207 12.8805 1.62827 12.9618 1.54738C13.0431 1.46648 13.1064 1.37022 13.1477 1.26458C13.1814 1.18239 13.23 1.15569 13.3183 1.15673C13.6348 1.16089 13.9517 1.15673 14.2685 1.1595C14.3983 1.1595 14.5053 1.12725 14.5818 1.0208L14.5818 0.81308ZM7.73841 7.09656C7.52027 7.09656 7.30176 7.09899 7.08326 7.09656C6.92626 7.09414 6.83292 7.01958 6.83078 6.90307C6.82863 6.78655 6.9327 6.69084 7.08397 6.69015C7.51311 6.68738 7.94094 6.68738 8.36746 6.69015C8.52052 6.69015 8.62531 6.77892 8.62674 6.89821C8.62817 7.0175 8.53197 7.09553 8.36675 7.09761C8.15718 7.09865 7.94798 7.09656 7.73841 7.09656ZM3.1559 6.68703C3.37834 6.68703 3.60078 6.68391 3.82286 6.68703C3.95804 6.6898 4.0503 6.77857 4.05245 6.89232C4.05459 7.00606 3.97163 7.08685 3.825 7.0924C3.71414 7.09656 3.60256 7.09414 3.4917 7.09414C3.16234 7.09414 2.83333 7.09622 2.50432 7.0924C2.34125 7.09032 2.26901 7.02305 2.27294 6.88815C2.27652 6.76366 2.36235 6.68876 2.51541 6.68633C2.7289 6.68703 2.9424 6.68703 3.1559 6.68703ZM12.2991 7.09622C12.0806 7.09622 11.8617 7.09899 11.6436 7.09622C11.4873 7.09344 11.4015 7.01611 11.4054 6.89266C11.409 6.77441 11.5052 6.6905 11.6522 6.6898C12.0813 6.68749 12.5094 6.68749 12.9364 6.6898C13.0973 6.6898 13.1867 6.76991 13.1849 6.89995C13.1831 7.02999 13.1038 7.09414 12.941 7.09656C12.7272 7.09899 12.513 7.09656 12.2991 7.09622ZM7.49774 6.20883C7.35111 6.20883 7.20413 6.21195 7.05715 6.20883C6.92376 6.20536 6.83471 6.12699 6.83078 6.01811C6.83191 5.96121 6.85626 5.90706 6.89849 5.86754C6.94072 5.82802 6.99739 5.80634 7.05608 5.80727C7.35386 5.80334 7.65187 5.80334 7.95012 5.80727C8.00659 5.80737 8.06087 5.82847 8.10178 5.8662C8.14269 5.90394 8.16713 5.95545 8.17006 6.01013C8.17006 6.11832 8.08173 6.20398 7.9512 6.20779C7.80064 6.2123 7.64901 6.20883 7.49774 6.20883ZM12.0752 6.20883C11.9193 6.20883 11.763 6.21334 11.6075 6.20883C11.4809 6.20398 11.4036 6.12422 11.4029 6.01325C11.402 5.98708 11.4064 5.96098 11.4161 5.93652C11.4257 5.91205 11.4403 5.88971 11.459 5.87083C11.4777 5.85194 11.5002 5.83689 11.525 5.82657C11.5498 5.81624 11.5765 5.81086 11.6035 5.81074C11.9109 5.80427 12.2184 5.80427 12.5262 5.81074C12.6574 5.81351 12.7311 5.90229 12.7268 6.02296C12.7229 6.13601 12.6485 6.2064 12.5165 6.21022C12.3714 6.2123 12.2244 6.20918 12.077 6.20918L12.0752 6.20883ZM2.92452 5.80519C3.0715 5.80519 3.21884 5.80172 3.36582 5.80519C3.50529 5.80935 3.59327 5.89119 3.59505 6.00944C3.59684 6.12769 3.51137 6.20571 3.36511 6.20744C3.07544 6.21091 2.78577 6.21091 2.49609 6.20744C2.3459 6.20571 2.26972 6.13393 2.27115 6.0084C2.27258 5.88287 2.35126 5.80935 2.49681 5.80519C2.64236 5.80103 2.78362 5.80554 2.92631 5.80554L2.92452 5.80519Z" fill="black"/>
</g>
<defs>
<clipPath id="clip0_16_231">
<rect width="13.7143" height="8" fill="white" transform="matrix(-1 -8.74228e-08 -8.74228e-08 1 14.5818 0.0191956)"/>
</clipPath>
</defs>
</svg>
