<svg width="12" height="13" viewBox="0 0 12 13" fill="none" xmlns="http://www.w3.org/2000/svg">
<g clip-path="url(#clip0_16_229)">
<path d="M0.689356 0.113586C0.458167 0.113586 0.269775 0.320817 0.269775 0.575125V7.95974C0.269775 8.21405 0.458167 8.42128 0.689356 8.42128H7.40264C7.63383 8.42128 7.82222 8.21405 7.82222 7.95974V0.575125C7.82222 0.320817 7.63383 0.113586 7.40264 0.113586H0.689356ZM1.10894 1.03666H6.98306V6.57513H1.10894V1.03666ZM8.2418 1.45482V2.3922L9.0025 2.53666L8.2418 7.38282V7.95974C8.2418 8.46928 7.86544 8.88282 7.40264 8.88282H2.95761L8.28124 9.89266C8.39079 9.91357 8.5034 9.8858 8.59434 9.81544C8.68528 9.74509 8.74712 9.6379 8.76628 9.51743L9.89411 2.23389C9.90364 2.17419 9.90237 2.113 9.89038 2.05383C9.87839 1.99467 9.8559 1.93868 9.82422 1.88908C9.79254 1.83948 9.75227 1.79724 9.70573 1.76478C9.65919 1.73232 9.60729 1.71027 9.55299 1.69989L8.2418 1.45528V1.45482ZM4.046 1.93066C3.56306 1.93066 3.15439 2.2962 3.15439 2.98389C3.15439 3.43343 3.33649 3.88482 3.58698 4.16636C3.68516 4.44789 3.51817 4.55497 3.48208 4.5702C2.97607 4.77143 2.38068 5.14482 2.38068 5.50759V6.09928H5.71131V5.50805C5.71131 5.1342 5.11467 4.76313 4.58348 4.5702C4.55915 4.56143 4.40852 4.48713 4.50502 4.16636C4.75467 3.88482 4.95061 3.43113 4.95061 2.98389C4.95061 2.2962 4.52894 1.93066 4.046 1.93066ZM10.0905 3.76297L9.94656 4.67128L10.2478 4.74328L9.09397 10.1377L8.92362 10.0944C8.83004 10.1958 8.71568 10.271 8.59016 10.3136C8.46464 10.3563 8.33164 10.3651 8.20236 10.3394L2.39411 9.24328L2.27537 9.79205C2.25065 9.9124 2.26973 10.0386 2.32855 10.1437C2.38736 10.2487 2.48123 10.3243 2.59005 10.3542L9.11998 12.042C9.22939 12.0692 9.34414 12.0482 9.43965 11.9836C9.53516 11.9189 9.60386 11.8156 9.63103 11.6959L11.1529 4.51205C11.2061 4.26466 11.0773 4.00851 10.8516 3.94943L10.0909 3.76205L10.0905 3.76297Z" fill="black"/>
</g>
<defs>
<clipPath id="clip0_16_229">
<rect width="10.9091" height="12" fill="white" transform="translate(0.269775 0.113586)"/>
</clipPath>
</defs>
</svg>
