<svg width="34" height="33" viewBox="0 0 34 33" fill="none" xmlns="http://www.w3.org/2000/svg">
<path d="M29.1105 28.9297L22.9718 22.9231M14.7423 10.2176V14.8956M14.7423 14.8956V19.5737M14.7423 14.8956H19.5317M14.7423 14.8956H9.95286M26.3737 14.8956C26.3737 17.9087 25.1483 20.7984 22.9669 22.929C20.7856 25.0596 17.8271 26.2566 14.7423 26.2566C11.6574 26.2566 8.69892 25.0596 6.51761 22.929C4.33629 20.7984 3.11084 17.9087 3.11084 14.8956C3.11084 11.8825 4.33629 8.99283 6.51761 6.86224C8.69892 4.73165 11.6574 3.5347 14.7423 3.5347C17.8271 3.5347 20.7856 4.73165 22.9669 6.86224C25.1483 8.99283 26.3737 11.8825 26.3737 14.8956V14.8956Z" stroke="black" stroke-width="3" stroke-linecap="round"/>
</svg>
