<svg width="34" height="33" viewBox="0 0 34 33" fill="none" xmlns="http://www.w3.org/2000/svg">
<path d="M29.6945 28.5076L23.5558 22.501M18.7473 14.4735H11.9052M26.9577 14.4735C26.9577 17.4866 25.7322 20.3763 23.5509 22.5069C21.3696 24.6375 18.4111 25.8345 15.3263 25.8345C12.2414 25.8345 9.28291 24.6375 7.10159 22.5069C4.92028 20.3763 3.69482 17.4866 3.69482 14.4735C3.69482 11.4604 4.92028 8.57074 7.10159 6.44015C9.28291 4.30956 12.2414 3.11261 15.3263 3.11261C18.4111 3.11261 21.3696 4.30956 23.5509 6.44015C25.7322 8.57074 26.9577 11.4604 26.9577 14.4735V14.4735Z" stroke="black" stroke-width="3" stroke-linecap="round"/>
</svg>
